<svg xmlns="http://www.w3.org/2000/svg" width="400" height="400" fill="none" viewBox="0 0 600 600"><g opacity=".53"><path fill="url(#a)" d="M553.996 509.802s-66.594-114.455-78.539-134.982c13.591-4.146 28.069-7.807 34.084-18.194 10.026-17.308-7.82-45.699-3.134-64.25 4.827-19.093 33.322-35.614 33.322-55.021 0-18.907-29.46-40.996-34.29-59.977-4.719-18.548 13.074-46.97 3.016-64.256-10.058-17.288-43.559-15.868-57.349-29.138-14.189-13.655-14.146-47.067-31.26-56.218-17.184-9.186-45.112 9.378-64.191 4.98C336.792 28.4 319.941 0 300.238 0c-19.994 0-51.795 32.215-56.783 33.374-19.07 4.433-47.033-14.085-64.199-4.86-17.098 9.181-16.993 42.596-31.156 56.275-13.768 13.294-47.27 11.935-57.297 29.242-10.026 17.304 7.82 45.689 3.136 64.25-4.698 18.608-34.185 37.462-34.185 58.982 0 19.409 28.566 35.878 33.422 54.96 4.72 18.548-13.072 46.967-3.014 64.26 5.476 9.412 17.899 13.276 30.307 16.991 1.448.433 4.186 2.053 2.331 4.756L45.992 510.791c-5.435 9.378-1.021 17.418 9.805 17.873l52.994 2.21c10.826.456 24.408 8.323 30.186 17.489l28.278 44.872c5.779 9.166 14.949 8.994 20.382-.383 0 0 79.122-136.6 79.154-136.639 1.588-1.855 3.183-1.474 3.947-.825 8.657 7.371 20.725 14.724 30.798 14.724 9.877 0 19.024-6.922 28.072-14.641.736-.628 2.527-1.914 3.838.755.021.042 79.055 135.895 79.055 135.895 5.448 9.366 14.619 9.524 20.38.347l28.198-44.925c5.763-9.173 19.33-17.071 30.156-17.543l52.989-2.309c10.821-.475 15.22-8.525 9.772-17.889ZM387.818 386.927c-58.593 34.088-128.923 30.435-182.642-3.449-78.713-50.418-104.612-154.716-57.294-236.387 47.859-82.613 153.063-111.763 236.42-66.364.438.238.871.485 1.306.728.617.342 1.233.69 1.848 1.04 25.716 14.826 48.016 36.344 63.984 63.79 48.802 83.887 20.263 191.84-63.622 240.642Z"/><path fill="url(#b)" d="M374.418 107.182c-.243-.141-.49-.272-.733-.411-44.528-25.772-101.282-27.656-148.847.017-70.585 41.065-94.603 131.898-53.539 202.482 12.531 21.539 29.702 38.733 49.513 51.072a152.906 152.906 0 0 0 5.13 3.125c70.661 40.937 161.444 16.754 202.379-53.904 40.934-70.661 16.758-161.444-53.903-202.381Zm17.677 115.515-24.742 24.116c-7.663 7.468-12.452 22.21-10.641 32.758l5.84 34.052c1.81 10.548-4.459 15.102-13.931 10.123l-30.582-16.078c-9.473-4.98-24.972-4.98-34.445 0l-30.58 16.078c-9.473 4.979-15.743.425-13.933-10.123l5.84-34.052c1.81-10.548-2.98-25.29-10.643-32.758l-24.74-24.116c-7.665-7.469-5.268-14.84 5.322-16.38l34.189-4.968c10.59-1.539 23.13-10.65 27.867-20.246l15.29-30.981c4.736-9.596 12.487-9.596 17.221 0l15.292 30.981c4.736 9.596 17.275 18.707 27.866 20.246l34.19 4.968c10.588 1.54 12.983 8.911 5.32 16.38Z"/></g><path fill="#000" d="M77.524 178.225c-.955-.049-2.124-.375-3.505-.978-1.28-.548-2.075-1.33-2.386-2.346-.454-1.485-.038-3.194 1.25-5.128 1.367-1.957 3.16-3.917 5.38-5.879a67.53 67.53 0 0 1 6.767-5.535c2.37-1.751 4.37-3.176 6-4.274 1.606-1.176 2.436-1.814 2.49-1.917a78.117 78.117 0 0 0 1.85-1.079l1.966-1.115c-.889-.668-1.937-1.159-3.144-1.473a58.873 58.873 0 0 0-3-1.005 41.693 41.693 0 0 1-2.812-.805 23.217 23.217 0 0 0-2.694-.842 825.066 825.066 0 0 1-6.82-1.757c-1.953-.514-3.953-1.739-6-3.676-.81-.693-1.64-1.592-2.493-2.699-.797-1.209-1.352-2.321-1.663-3.337-.67-2.188-.382-4.456.865-6.804 1.223-2.426 2.854-4.636 4.894-6.628 2.015-2.071 3.799-3.643 5.35-4.717a58.163 58.163 0 0 0 1.778-1.313c.53-.504 1.173-.915 1.93-1.233a6.845 6.845 0 0 0 1.625-1.395c.583-.606 1.176-1.044 1.777-1.314a16.752 16.752 0 0 1 2.986-1.555 43.834 43.834 0 0 0 2.868-1.52 5.317 5.317 0 0 1 1.84-.692c.703-.215 1.253-.512 1.65-.89l.199-.189.117-.036c.313-.096.637-.152.974-.17l.937-.287a4.04 4.04 0 0 0 .902-.405c.343-.276.671-.462.983-.557a3.27 3.27 0 0 1 1.245-.125 8.188 8.188 0 0 0 1.325-.278c.391-.119.946-.119 1.667.002.776.019 1.343.059 1.704.12 1.057.103 2.054.567 2.991 1.392 1.014.8 1.677 1.708 1.988 2.724.311 1.016.238 1.893-.219 2.632-.482.66-.979 1.411-1.49 2.252-.512.84-.922 1.735-1.23 2.684a71.45 71.45 0 0 0-.887 2.965l-.351.107c-.155-1.064-.064-2.16.274-3.289a65.456 65.456 0 0 0 1.131-3.424c.338-1.13.339-2.241.004-3.335-.454-1.485-1.343-2.153-2.665-2.005a18.155 18.155 0 0 0-3.507.69 24.09 24.09 0 0 0-3.21 1.24 312.6 312.6 0 0 1-3.022 1.438c-2.952 1.246-5.664 2.718-8.136 4.416-2.394 1.673-4.755 3.593-7.083 5.76a84.615 84.615 0 0 0-2.708 2.881 28.938 28.938 0 0 1-2.581 2.457 20.7 20.7 0 0 1-1.344 1.053 353.04 353.04 0 0 1-2.052 4.603c-.766 1.688-.909 3.313-.43 4.876.526 1.72 1.799 3.082 3.816 4.088 2.018 1.006 4.427 1.893 7.226 2.659 2.8.767 5.584 1.624 8.353 2.571 2.745.869 5.12 2.064 7.125 3.587l2.67-1.33a20.063 20.063 0 0 1 2.859-1.132c2.266-.695 4.267-.581 6.002.341 1.736.921 2.951 2.515 3.645 4.781.55 1.798.519 3.09-.095 3.876-.56.685-1.396 1.582-2.509 2.692-.452.48-.879 1.039-1.282 1.675-.404.637-.906 1.09-1.507 1.359l-.036-.117-.118.036-.036-.117.118-.036a54.53 54.53 0 0 0 1.978-3.17 20.767 20.767 0 0 0 1.762-3.874c.525-1.358.643-2.505.356-3.443-.335-1.094-1.031-1.693-2.089-1.796-1.081-.182-2.22-.132-3.416.149-1.22.202-2.182.411-2.885.627-.547.167-1.122.386-1.723.656a14.69 14.69 0 0 0-1.722.656c.102.054.165.12.189.198.024.078.087.144.189.199.402.475.699 1.025.89 1.65.287.938.325 2.038.113 3.299-.424 2.524-1.475 4.812-3.154 6.865a26.499 26.499 0 0 1-5.677 5.329 52.42 52.42 0 0 1-6.612 3.949c-.288.174-.589.308-.902.404l-.937.287a22.259 22.259 0 0 1-5.608.949l.127-.424c.414-.041.778-.11 1.09-.206.415-.041.779-.11 1.091-.206.391-.119.836-.341 1.335-.665.523-.246.968-.467 1.335-.665.506-.583 1.534-1.41 3.086-2.484a59.39 59.39 0 0 0 4.267-3.231c1.372-1.104 2.052-1.953 2.04-2.548-.07-.234-.068-.364.01-.388.77-.834 1.676-1.923 2.718-3.268a20.44 20.44 0 0 0 2.547-4.242c.735-1.508.923-2.848.564-4.02l-.072-.234c-4.498 2.061-8.512 4.445-12.042 7.15-1.318 1.002-2.981 2.409-4.99 4.222a38.741 38.741 0 0 0-5.145 5.807c-1.523 2.005-2.358 3.885-2.504 5.639.024.079.008.169-.046.271l.144.469c.167.547.554 1.112 1.16 1.696.63.662 1.258.897 1.883.705l.144.469Zm47.095-52.893c-.312.096-.763.02-1.351-.227-.589-.247-.931-.527-1.027-.839-.048-.157.118-.592.497-1.307a19.79 19.79 0 0 1 1.22-2.297c.512-.84.822-1.363.931-1.567.673-.035 1.093.221 1.26.768.096.313.068.919-.083 1.821a10.663 10.663 0 0 1-.562 2.351c-.199.745-.494 1.178-.885 1.297Zm-3.125 34.167a1.315 1.315 0 0 1-.776-.019 1.55 1.55 0 0 0-.693-.172c-.691-.301-1.202-.572-1.532-.813-.33-.241-.615-.752-.854-1.533-.766-2.501-.91-5.064-.432-7.689.454-2.704.866-5.266 1.235-7.688.109-.204.1-.372-.026-.504a2.02 2.02 0 0 1-.297-.551c-.215-.703-.181-1.568.103-2.595.338-1.13.766-2.244 1.284-3.343.518-1.099.952-1.916 1.301-2.45.469-.144 1.196-.281 2.182-.412.961-.209 1.538-.001 1.73.624.024.078-.224.667-.742 1.766s-.819 1.79-.904 2.072c-.537 1.874-1.174 4.121-1.91 6.74a55.473 55.473 0 0 0-1.506 7.642c-.322 2.577-.171 4.882.451 6.914.89-.444 1.699-1.29 2.428-2.539.783-1.351 1.34-2.462 1.672-3.333l.117-.036.036.117c.095.313.035.673-.182 1.082a5.938 5.938 0 0 0-.452 1.036c-.145.642-.378 1.697-.698 3.163-.242 1.441-.754 2.282-1.535 2.521Zm12.303-6.845c-.469.143-1.088.076-1.857-.201-.691-.301-1.108-.687-1.251-1.155-.455-1.485-.615-3.402-.48-5.752.135-2.349.403-4.825.803-7.426.478-2.625.952-5.122 1.424-7.489.55-2.391 1.012-4.37 1.387-5.938.175-.823.26-1.661.255-2.515a7.662 7.662 0 0 1 .643-2.505c.65-.113 1.413-.133 2.29-.06.955.05 1.565.504 1.828 1.364.192.625.016 1.448-.526 2.469-.488.919-.855 1.672-1.102 2.261a49.485 49.485 0 0 0-2.75 7.766 87.108 87.108 0 0 0-1.516 8.029c-.091.541-.142 1.07-.155 1.587l-.11 1.316a8.472 8.472 0 0 1-.227 1.351 1.79 1.79 0 0 0-.028 1.163c.048.156.146.34.296.55.15.211.343.28.577.208.434-.816 1.087-2.171 1.961-4.062.85-1.97 1.805-4.015 2.865-6.135a136.531 136.531 0 0 1 2.856-5.747c.945-1.658 1.617-2.675 2.014-3.053.132-.126.276-.213.433-.261.132-.126.276-.213.433-.261 1.25-.383 2.406-.096 3.469.861 1.038.878 1.725 1.865 2.06 2.959.383 1.25.637 2.497.762 3.741.124 1.244.366 2.453.725 3.625.288.938.854 2.089 1.7 3.454.845 1.365 1.893 1.856 3.144 1.473.264-.252.568-.516.911-.792.343-.276.67-.462.983-.557.235-.072.4.048.495.361.12.391-.019.775-.416 1.153-.319.354-.634.579-.947.675-1.172.359-2.539.222-4.101-.411-1.585-.711-2.702-1.566-3.35-2.564a29.314 29.314 0 0 1-1.78-3.301 61.989 61.989 0 0 1-1.231-3.598c-.167-.547-.367-1.341-.6-2.381-.179-1.142-.317-1.869-.412-2.181-.469.143-.987.686-1.553 1.629a19.674 19.674 0 0 0-1.581 2.792c-.488.919-.828 1.622-1.021 2.108-.108.204-.295.433-.56.685a4.866 4.866 0 0 0-.523.801 35.057 35.057 0 0 0-.625 1.73 20.152 20.152 0 0 1-.777 1.649c-.108.204-.376.585-.803 1.143-.35.535-.566.943-.651 1.225a10.708 10.708 0 0 1-.842 2.694 25.844 25.844 0 0 0-1.076 2.766 5.449 5.449 0 0 0-.181 1.082c-.061.36-.185.654-.371.883-.139.384-.443.648-.911.792Zm35.241-7.59c-1.328.407-2.921.51-4.778.31-1.778-.225-3.21-.855-4.297-1.89-.528-.607-.947-1.419-1.259-2.435-.454-1.485-.696-2.693-.725-3.624a13.095 13.095 0 0 1 .148-2.867 43.33 43.33 0 0 0 .554-3.631c.03-.181.196-.616.497-1.307l1.139-2.144c.434-.816.693-1.366.777-1.648l.706-1.883c.114-.463.328-.742.641-.838.366-.197.643-.41.83-.639.29-1.285.862-2.486 1.717-3.603.373-.456 1.128-1.2 2.265-2.232 1.137-1.033 1.94-1.62 2.409-1.764.391-.12.766-.149 1.127-.089.36.061.697.043 1.009-.053l.199-.189c.324.5.795.783 1.414.849.697.043 1.177.495 1.441 1.354.071.235.047.712-.074 1.433a23.774 23.774 0 0 1-.481 2.199c-.145.643-.335 1-.569 1.072a6.442 6.442 0 0 1-.043-1.397 4.64 4.64 0 0 0-.197-1.479c-.12-.39-.356-.745-.711-1.064-.378-.397-.801-.524-1.27-.38-.938.287-1.927 1.103-2.969 2.448a25.66 25.66 0 0 0-2.745 4.431c-.814 1.531-1.425 2.744-1.835 3.639a205.243 205.243 0 0 0-2.26 5.18 13.843 13.843 0 0 0-.908 5.407c.035.673.059 1.307.07 1.902.089.571.242 1.209.457 1.912.228.186.39.436.486.749.072.234.234.484.486.748a3.928 3.928 0 0 0 1.954.94 5.896 5.896 0 0 0 2.101-.258c1.407-.431 2.612-1.1 3.617-2.006 1.005-.906 1.859-1.467 2.562-1.682a9.164 9.164 0 0 1 1.354-1.441l1.354-1.44c.391-.12.827-.51 1.308-1.17.536-.763.936-1.27 1.201-1.522a142.576 142.576 0 0 0 3.99-4.556 61.416 61.416 0 0 0 3.647-4.836c.241-.33.618-.916 1.129-1.756.59-.865 1.03-1.384 1.318-1.558-.078.024-.09-.015-.036-.117.259.006.448.205.568.595.239.782-.135 1.794-1.122 3.037-1.011 1.164-1.73 2.026-2.157 2.584a5.09 5.09 0 0 0-.417 1.153c-.114.463-.367.754-.758.874l-.009.387c-.452.48-1.05 1.177-1.797 2.089-.668.889-1.068 1.396-1.2 1.522-.5.324-.897.702-1.192 1.134-.319.354-.653.798-1.002 1.333a15.368 15.368 0 0 0-1.445 1.981 2.834 2.834 0 0 1-1.741 1.431c.024.078-.003.129-.081.153.065.493-.152.901-.651 1.225-.523.246-.917.495-1.182.747-.637.708-1.323 1.26-2.057 1.656-.655.372-1.491.713-2.507 1.024Zm31.863-10.529c-1.954.598-4.099.572-6.436-.08-2.337-.652-3.84-2.072-4.51-4.261l-.36-1.172a5.72 5.72 0 0 0-.205-1.091c-.144-.469-.615-.752-1.415-.849-.823-.175-1.306-.497-1.45-.966.055-.102.16-.177.316-.225a2.182 2.182 0 0 1 1.01-.053c.336-.017.661-.074.973-.17.235-.072.485-.234.749-.486.109-.204.206-1.003.292-2.397.164-1.418.478-3.181.944-5.29.465-2.108 1.228-4.223 2.288-6.343 1.037-2.198 2.505-4.101 4.406-5.709l1.263-.9c.475-.402.948-.674 1.416-.818.86-.263 1.866-.187 3.02.229 1.207.314 1.955.94 2.242 1.878.167.547.206 1.091.115 1.631-.115.463-.218.965-.308 1.505l-.479.532c-.115.462-.377 1.141-.787 2.036-.355.792-.485 1.345-.389 1.658l-.118.036.036.117-.433.261a4.374 4.374 0 0 0-.813 1.531c-.169.565-.413 1.024-.732 1.378a150.501 150.501 0 0 1-3.556 4.295 38.346 38.346 0 0 1-3.782 3.98 4.354 4.354 0 0 1-.948.674 1.573 1.573 0 0 0-.758.874 5.424 5.424 0 0 0-.2 1.856c.113.65.265 1.287.457 1.912.287.938.845 1.921 1.673 2.949.804.951 1.792 1.247 2.964.888l.352-.108c.132-.126.237-.201.316-.225a6.93 6.93 0 0 0 1.253-.512l1.335-.666.596-.567.117-.036c.391-.119 1.049-.62 1.976-1.502a144.93 144.93 0 0 0 2.825-2.917c.878-1.039 1.399-1.711 1.562-2.017a.81.81 0 0 0 .244-.46l.244-.459a80.905 80.905 0 0 1 3.205-4.188 27.292 27.292 0 0 0 2.98-4.503l.036.118.234-.072c.042.414-.151.901-.578 1.459-.35.535-.582 1.033-.696 1.496-.381 1.826-1.294 3.73-2.739 5.711a98.993 98.993 0 0 1-4.045 5.214 24.822 24.822 0 0 0-1.246 1.792 5.87 5.87 0 0 1-1.354 1.44c-1.052.75-2.086 1.281-3.102 1.592Zm-8.522-11.494c.625-.192 1.14-.606 1.543-1.242.458-.739.831-1.195 1.12-1.369l.153.081-.036-.117c1.269-1.158 2.377-2.566 3.322-4.223a94.387 94.387 0 0 0 2.755-4.819l.235-.072c-.144-.469.052-1.084.588-1.847.512-.841.708-1.456.588-1.847.109-.204.193-.486.254-.847.036-.439.031-.736-.017-.892-.282-.085-.658-.055-1.127.088-.343.276-.767.705-1.273 1.288-.505.582-.992.945-1.461 1.089.024.078-.271.51-.885 1.296a215.28 215.28 0 0 0-1.689 2.441c-.59.865-.966 1.45-1.129 1.756-.271.511-.68 1.406-1.229 2.685a41.611 41.611 0 0 0-1.411 3.766c-.392 1.231-.504 2.12-.337 2.667l.036.118Zm48.591 1.015c-.547.168-1.1.038-1.658-.389-.558-.428-.909-.876-1.053-1.345-.167-.547.237-1.739 1.213-3.577 1.053-1.861 2.453-4.128 4.2-6.8 1.746-2.672 3.585-5.458 5.517-8.358 1.987-3.002 3.881-5.89 5.681-8.664 1.854-2.876 3.351-5.386 4.489-7.53 1.193-2.246 1.841-3.897 1.945-4.955l.09-.54a1.995 1.995 0 0 0-.062-.622l-.117.035c-.643-.145-1.328-.148-2.055-.011-.649.113-1.287.266-1.912.457-1.563.479-2.765 1.018-3.607 1.618l-3.158 2.25-.866.521c-.313.096-.601.27-.866.522-.499.324-1.095.891-1.787 1.701-.614.787-1.233 1.276-1.858 1.467-.109.204-.389.547-.84 1.027-.475.402-.689.68-.641.837l.938-.287c.024.078-.244.46-.804 1.144a37.27 37.27 0 0 0-1.643 2.17c-.56.684-.906 1.09-1.038 1.215-.421.3-.749.486-.984.558-.312.096-.787-.058-1.423-.461-.637-.404-1.003-.762-1.098-1.074l1.282-1.675a9.14 9.14 0 0 1 1.354-1.44c-.024-.079.042-.142.198-.19.108-.204.388-.546.84-1.026a20.24 20.24 0 0 1 1.624-1.395l.794-.757c.085-.282.497-.75 1.237-1.404a66.287 66.287 0 0 1 2.688-2.106 61.674 61.674 0 0 1 2.527-1.8l1.028-.828 2.589-1.177.035.117c.187-.228.398-.378.632-.45l.703-.215.082-.153a3.737 3.737 0 0 0 1.289-.395c1.4-.173 2.747-.243 4.039-.212 1.37.008 2.33.91 2.881 2.708.239.782.295 1.662.167 2.641a9.601 9.601 0 0 1-.525 2.47 19.656 19.656 0 0 1-1.581 2.792c-.614.786-1.255 1.624-1.923 2.512l-2.727 3.656a135.336 135.336 0 0 1-2.61 3.621 71.626 71.626 0 0 1-1.959 2.395c-.614.786-1.255 1.624-1.923 2.512a42.02 42.02 0 0 1-1.77 2.594c-.668.888-1.102 1.705-1.301 2.45-.186.228-.548.723-1.083 1.486a34.023 34.023 0 0 1-1.409 2.098c-.482.661-.828 1.066-1.038 1.216.011.595-.341 1.258-1.057 1.991-.716.732-1.186 1.431-1.409 2.098l.27.045c.235-.071.656-.371 1.263-.899a32.402 32.402 0 0 1 2.022-1.774c.763-.575 1.38-.935 1.849-1.079a6.79 6.79 0 0 1 1.11-.981c.475-.402.947-.675 1.416-.818.295-.433.626-.748.993-.946a3.832 3.832 0 0 0 1.028-.828l-.036-.117.857-.134.875-.909.153.081c.133-.126.527-.375 1.182-.747.734-.395 1.065-.71.993-.945l.505-.026c.264-.252.436-.39.514-.414.289-.174.55-.297.785-.369.21-.15.472-.273.784-.368l.479-.531.351-.108 1.101-.594.586-.179-.189-.199.117-.036.036.118c.757-.318 1.476-.624 2.155-.917.68-.294 1.371-.548 2.074-.764.469-.143 1.158-.269 2.065-.376.986-.131 1.89-.108 2.713.067.877.073 1.412.422 1.603 1.047.096.313.035.674-.181 1.082l-.118.036c-.365-.914-1.041-1.306-2.026-1.175-.986.131-1.854.226-2.606.286-.24.33-.857.69-1.849 1.079l-2.11.646c-.373.456-.911.792-1.614 1.008l-.479.531-.153-.081-4.024 2.771a73.617 73.617 0 0 1-3.942 2.618c-1.155.695-2.58 1.901-4.277 3.618a257.553 257.553 0 0 1-4.287 4.006c-.319.354-.665.759-1.038 1.215-.271.511-.68.85-1.227 1.017Zm41.856-14.103c-1.016.311-1.986.352-2.911.122a10.845 10.845 0 0 1-2.532-1.148 5.413 5.413 0 0 1-1.548-1.705 23.546 23.546 0 0 1-.799-2.191c-.527-1.72-.783-3.394-.769-5.022.068-1.73.226-3.446.475-5.146l.091-.541a.797.797 0 0 1 .244-.46 1.505 1.505 0 0 1-.017-.892c.139-.384.211-.706.217-.964a60.056 60.056 0 0 1 1.177-3.694 20.228 20.228 0 0 1 1.808-4.144c.807-1.273 1.757-2.077 2.851-2.412l.857-.134.351-.108c.626-.192 1.178-.062 1.658.39.559.427.994.593 1.307.497-.211.15-.433.26-.668.333-.18-.03-.387-.01-.622.062-1.016.311-1.957 1.283-2.825 2.917a31.652 31.652 0 0 0-1.989 5.225c-.561 1.796-.945 3.196-1.15 4.2-.061.36-.188.783-.381 1.27a1.796 1.796 0 0 0-.028 1.162c-.187.229-.308.95-.363 2.163a33.91 33.91 0 0 0-.05 3.606c.023 1.19.094 1.98.213 2.371l.324 1.055.567.595-.235.072c.87 1.443 2.008 1.95 3.415 1.519 1.015-.312 1.909-.884 2.679-1.719a34.11 34.11 0 0 0 2.112-2.313c.614-.787 1.077-1.228 1.39-1.324l-.118.036c.109-.204.365-.624.768-1.261.458-.738.765-1.132.921-1.179.115-.463.32-.91.615-1.343.295-.432.551-.852.768-1.26a36.698 36.698 0 0 0 1.554-3.298 74.549 74.549 0 0 0 1.366-3.495l.117-.036c.084-.282.241-.886.471-1.811.283-1.028.552-1.965.805-2.812.23-.925.372-1.438.426-1.54-.12-.391-.119-.947.002-1.668.097-.8.215-1.39.354-1.775l-.072-.235c.109-.204.142-.513.1-.928.037-.439.094-.67.173-.694l-.225-.316c.108-.204.142-.513.1-.928.037-.439.094-.67.172-.694l-.144-.469c-.095-.312-.137-.727-.124-1.244a32.13 32.13 0 0 0-.403-2.57 28.557 28.557 0 0 0-.636-2.497c-.312-1.016-.969-1.626-1.972-1.832-.925-.23-1.818-.213-2.677.05-1.954.6-3.83 1.73-5.629 3.392-1.721 1.638-3.156 3.232-4.306 4.78-1.173 1.471-1.955 2.267-2.346 2.386-.007.259-.293.86-.859 1.802a61.359 61.359 0 0 0-1.743 3.099 85.237 85.237 0 0 0-1.825 3.251c-.464.997-.624 1.73-.481 2.199l-.117.036-.314-1.443c.007-.258.089-.967.246-2.127.236-1.183.471-1.81.706-1.883-.192-.625.064-1.045.768-1.26l.588-1.848.198-.189.154.082c-.012-.595.353-1.22 1.093-1.874.716-.732 1.209-1.353 1.48-1.864l-.072-.234.352-.108c-.102-.054.006-.258.325-.612.397-.379.623-.619.677-.72.56-.685 1.297-1.766 2.213-3.243.891-1.555 1.727-2.453 2.509-2.692l-.036-.117c.265-.252.686-.552 1.263-.9.553-.426.986-.687 1.299-.782l1.055-.324c.86-.263 1.818-.343 2.876-.24 1.033.026 1.985.204 2.856.536 1.592.453 2.817 1.103 3.676 1.952.858.848 1.526 2.054 2.005 3.617.215.703.314 1.442.295 2.217a8.53 8.53 0 0 0 .376 2.065c-.241.33-.428 1.114-.562 2.352a59.189 59.189 0 0 0-.138 2.478 24.946 24.946 0 0 1-1.351 6.056 51.14 51.14 0 0 1-2.234 5.685l.072.234c-.681 1.406-1.72 3.177-3.116 5.315a56.79 56.79 0 0 1-4.523 5.745c-1.595 1.77-3.135 2.883-4.62 3.338Zm30.154-6.8c-1.016.311-1.827.175-2.433-.409-.582-.506-1.017-1.227-1.304-2.165-.479-1.563-.708-3.288-.688-5.175.099-1.91.194-3.692.286-5.345.007-.258.031-.736.074-1.433l.129-2.09c.121-.722.221-1.094.299-1.118l-.072-.235c-.119-.39-.11-.778.029-1.162.193-.487.268-.937.227-1.352l.253-.847-.107-.352c.084-.282.202-.874.353-1.775.128-.98.267-1.92.418-2.82.23-.926.384-1.4.462-1.424-.024-.078.055-.658.237-1.74l.473-3.478c.235-1.184.357-1.905.363-2.163l-.235.072-.523.801c-.445.222-.842.6-1.192 1.134-.295.433-.586.736-.875.91l-.072-.235c1-1.76 1.72-3.176 2.16-4.251.518-1.1 1.022-2.664 1.511-4.695l.198-.189c.055-.102.199-.189.433-.26a8.824 8.824 0 0 1 1.902-.07c.674-.036 1.106.26 1.297.885.192.625.107 1.463-.255 2.514a23.764 23.764 0 0 0-.878 2.577 151.471 151.471 0 0 1-.789 3.704 26.911 26.911 0 0 1-1.131 3.423l-.117.036-.098-.739a5.664 5.664 0 0 0-.237 1.74 5.634 5.634 0 0 1-.236 1.739 34.676 34.676 0 0 0-1.126 6.371 64.545 64.545 0 0 1-.855 6.417l-.218.964a18.095 18.095 0 0 0-.012 2.055c.114.65.071 1.346-.128 2.091l.225.316c.317.757.4 1.587.249 2.488a6.876 6.876 0 0 0 .285 2.605l.323 1.055c.246.523.444.89.594 1.101l.036.117a2.72 2.72 0 0 0 .784-.369c.211-.15.433-.26.668-.332l.27.045-.019.775-.938.288Zm20.749-8.407c-1.485.454-3.017.197-4.596-.772-1.525-1.072-2.515-2.35-2.97-3.835a10.104 10.104 0 0 1-.412-2.182l.057-2.325a6.507 6.507 0 0 0-.043-1.398 16.079 16.079 0 0 1-.125-1.244c.183-2.193.76-4.635 1.731-7.326a199.82 199.82 0 0 1 2.848-7.027c.687-1.663 1.597-3.438 2.729-5.323a155.823 155.823 0 0 1 3.351-5.386 18.473 18.473 0 0 1 2.014-3.053c.824-.937 1.598-1.9 2.32-2.891a9.567 9.567 0 0 1 1.029-.828c.499-.324.881-.612 1.145-.864.806-.161 1.578-.013 2.316.445.817.433 1.357 1.08 1.62 1.94.048.156.057.324.027.505l.143.468-.234.072c-.42-.812-1.02-1.098-1.802-.858-1.094.335-2.053.97-2.878 1.907a16.006 16.006 0 0 0-1.923 2.512c-.511.841-.978 1.411-1.399 1.711a55.414 55.414 0 0 0-1.734 2.711c-.512.84-1.051 1.733-1.617 2.675a66.985 66.985 0 0 0-1.021 2.108 64.42 64.42 0 0 0-1.509 3.027l-.813 1.531-.38 1.27c-.115.463-.368.754-.759.874.102.054.165.12.189.199-.06.36-.199.744-.416 1.153-.138.384-.316.78-.533 1.189-.217.408-.386.973-.507 1.694a11.456 11.456 0 0 1-.507 1.694 82.792 82.792 0 0 0-1.305 5.785c-.303 1.802-.143 3.72.479 5.751.336 1.094.845 1.921 1.53 2.481.684.56 1.612.66 2.784.301.235-.072.457-.183.668-.333.21-.15.433-.26.667-.332l-.036-.118c.079-.023.262-.122.551-.296.366-.198.577-.348.631-.45.217-.409.482-.66.794-.756l.235-.072c.115-.463.623-1.174 1.526-2.135.878-1.038 1.426-1.761 1.643-2.17.108-.204.214-.279.316-.225l.351-.107.082-.153c-.39-.993-.265-1.843.373-2.55.613-.787.957-1.62 1.03-2.496l.082-.154-.036-.117-.316.225a7.775 7.775 0 0 1 .201-1.856c.145-.643.133-1.238-.034-1.785-.216-.704-.597-.971-1.144-.804-.547.168-1.233.72-2.057 1.656a21.66 21.66 0 0 0-2.203 2.855c-.644.966-1.102 1.705-1.373 2.215l-.624 1.73c-.061.36-.112.89-.155 1.586-.067.62-.296.989-.687 1.108l-.072-.234c-.628-1.774-.653-3.39-.075-4.85a134.525 134.525 0 0 1 2.088-4.486l.235-.072c.121-.72.416-1.153.885-1.297l.559-.684c.265-.252.542-.465.83-.639l.235-.072.081-.153.036.117.199-.189-.036-.117.153.081c1.046-.491 2.269-.267 3.668.672 1.375.861 2.218 1.8 2.529 2.816.096.312.089 1.126-.021 2.442-.134 1.238-.357 1.905-.67 2-.054.103-.391.676-1.011 1.72a75.983 75.983 0 0 0-1.094 1.874l-.234.072-.1.928c-.523.246-.92.624-1.192 1.135l-.731 1.378c-.241.33-.533.633-.876.91-.265.251-.568.515-.911.791-.211.15-.409.34-.596.567-.084.283-.271.51-.56.685-.054.102-.159.177-.315.225-.157.047-.25.162-.28.342a5.681 5.681 0 0 0-1.019.44 4.58 4.58 0 0 1-1.019.44Z"/><defs><linearGradient id="a" x1="300" x2="300" y1="0" y2="599.999" gradientUnits="userSpaceOnUse"><stop stop-color="#7324DB"/><stop offset="1" stop-color="#C5B7D8" stop-opacity="0"/></linearGradient><linearGradient id="b" x1="299.743" x2="299.743" y1="86.731" y2="383.39" gradientUnits="userSpaceOnUse"><stop stop-color="#7324DB"/><stop offset="1" stop-color="#C5B7D8" stop-opacity="0"/></linearGradient></defs></svg>